<?xml version="1.0" encoding="utf-8"?>
<!-- Generator: Adobe Illustrator 15.1.0, SVG Export Plug-In . SVG Version: 6.00 Build 0)  -->
<!DOCTYPE svg PUBLIC "-//W3C//DTD SVG 1.1//EN" "http://www.w3.org/Graphics/SVG/1.1/DTD/svg11.dtd">
<svg width="29px" height="26px" viewBox="0 0 29 26" version="1.1" xmlns="http://www.w3.org/2000/svg" xmlns:xlink="http://www.w3.org/1999/xlink">
    <!-- Generator: Sketch 47.1 (45422) - http://www.bohemiancoding.com/sketch -->
    <title>headshots</title>
    <desc>Created with Sketch.</desc>
    <defs></defs>
    <g id="Symbols" stroke="none" stroke-width="1" fill="none" fill-rule="evenodd">
        <g id="stats-casual" transform="translate(-858.000000, -106.000000)" fill="#A1BE00">
            <path d="M882.298226,109.108388 C882.164507,109.487878 881.62963,108.653001 881.62963,108.653001 C881.62963,108.577104 882.164507,107.059147 882.164507,107.059147 C882.164507,107.059147 882.654811,107.28684 882.699384,107.438636 C882.743957,107.590432 882.431946,108.728899 882.298226,109.108388 Z M884.386663,109.204277 C884.264886,109.25928 883.777778,108.544237 883.777778,108.544237 C883.838666,108.43423 885.36088,107.059147 885.36088,107.059147 C885.36088,107.059147 885.847989,107.44417 885.908877,107.499174 C885.969766,107.554177 885.847989,107.77419 885.847989,107.829194 C885.847989,107.884197 884.50844,109.149274 884.386663,109.204277 Z M886.955588,110.448497 C887.023201,110.559915 887.023201,111.284135 886.887975,111.339845 C886.752749,111.395554 884.589134,111.284135 884.318682,111.284135 C884.04823,111.284135 883.777778,111.005589 883.777778,111.005589 L883.777778,110.337078 L886.685136,110.281369 C886.685136,110.281369 886.887975,110.337078 886.955588,110.448497 Z M884.39961,111.355443 C884.39961,111.355443 885.925926,112.751739 885.925926,112.805443 C885.925926,112.859147 885.756335,113.127665 885.756335,113.235073 C885.756335,113.34248 885.473684,113.503591 885.473684,113.503591 L883.777778,111.89248 C883.777778,111.89248 884.060429,111.355443 884.116959,111.355443 L884.39961,111.355443 Z M882.703704,112.983878 L883.240741,112.429517 C883.240741,112.429517 883.777778,113.676829 883.777778,113.884714 C883.777778,114.0926 883.419753,114.577665 883.330247,114.577665 C883.240741,114.577665 882.703704,112.983878 882.703704,112.983878 Z M882.589725,110.353576 C882.719815,110.417229 882.72468,110.601347 882.598065,110.67184 L880.475632,111.7483 C880.44859,111.763437 880.417948,111.771164 880.386926,111.770847 C879.824174,111.765274 874.428784,111.714605 874.368889,111.83469 C874.305708,111.961362 875.506144,114.178125 874.937516,115.571518 C874.368889,116.964911 874.526841,117.31326 874.842745,119.086669 C875.158649,120.860079 874.526841,120.733407 873.642309,123.90021 C872.757778,127.067013 872.125969,127.067013 871.43098,127.700374 C870.735991,128.333735 871.43098,128.270399 871.43098,129.790464 C871.43098,131.31053 867.892854,131.753882 867.892854,131.753882 C863.7861,132.007226 859.110719,126.813669 858.731634,126.053636 C858.352549,125.293604 859.300261,124.090218 859.300261,121.430104 C859.300261,118.769989 856.646667,113.639768 858.921176,109.649596 C861.195686,105.659424 865.460392,106.007772 865.460392,106.007772 C870.072593,105.817764 872.410283,109.174576 872.410283,109.174576 L879.950599,109.174576 C879.97783,109.174576 880.004682,109.180783 880.029196,109.192816 L882.589725,110.353576 Z M874.621612,115.508182 C874.621612,115.508182 873.6739,115.444846 873.231634,116.204879 C872.789368,116.964911 873.231634,117.344928 873.6739,117.598272 C874.116166,117.851616 874.305708,117.851616 874.305708,117.534936 C874.305708,117.218256 874.43207,115.951534 874.558431,115.824862 C874.684793,115.69819 874.621612,115.508182 874.621612,115.508182 Z M873.421176,123.488526 C873.547538,123.045173 873.357996,122.411813 873.294815,122.348477 C873.231634,122.285141 872.663007,122.095132 871.968017,122.158469 C871.968017,122.158469 871.020305,122.285141 870.64122,122.348477 C870.262135,122.411813 869.377603,122.791829 869.314423,123.045173 C869.251242,123.298518 869.88305,123.868542 869.946231,123.931878 C870.009412,123.995214 871.273028,124.565239 872.031198,124.438567 C872.789368,124.311895 873.294815,123.931878 873.421176,123.488526 Z M866.85037,116.078206 C866.78719,117.281592 869.061699,117.408264 869.061699,117.408264 C869.061699,117.408264 870.830763,117.281592 870.830763,116.01487 C870.830763,114.748149 868.935338,114.748149 868.935338,114.748149 C868.935338,114.748149 866.913551,114.874821 866.85037,116.078206 Z M866.724009,112.594723 C866.724009,112.404715 867.861264,112.468051 867.987625,112.278043 C868.113987,112.088034 867.418998,111.644682 867.292636,111.51801 C867.166275,111.391338 868.113987,110.631305 868.177168,110.504633 C868.240349,110.377961 866.724009,109.491256 866.597647,109.364584 C866.471285,109.237912 866.155381,108.161199 866.0922,108.161199 L865.776296,108.161199 C865.776296,108.161199 864.639041,108.414543 864.51268,108.287871 C864.386318,108.161199 864.51268,107.527838 864.259956,107.527838 C864.007233,107.527838 863.75451,108.224535 863.75451,108.224535 C863.75451,108.224535 863.501786,108.351207 863.375425,108.351207 C863.249063,108.351207 862.743617,108.097862 862.680436,108.097862 C862.617255,108.097862 862.554074,108.541215 862.554074,108.667887 C862.554074,108.794559 862.364532,109.174576 862.301351,109.174576 L860.848192,109.174576 C860.72183,109.174576 860.848192,109.364584 860.848192,109.491256 C860.848192,109.617928 861.164096,110.124617 861.227277,110.377961 C861.290458,110.631305 860.469107,110.947985 860.342745,110.947985 C860.216383,110.947985 860.026841,111.20133 860.026841,111.20133 C860.090022,111.51801 861.416819,111.454674 861.48,111.454674 C861.543181,111.454674 861.606362,112.531387 861.606362,112.594723 C861.606362,112.658059 861.922266,112.594723 862.048627,112.594723 C862.174989,112.594723 862.364532,114.051452 862.490893,114.241461 C862.617255,114.431469 862.743617,114.114789 863.059521,113.861444 C863.375425,113.6081 863.628148,113.734772 863.75451,113.798108 C863.880871,113.861444 864.575861,114.494805 864.702222,114.494805 C864.828584,114.494805 865.460392,113.544764 865.649935,113.544764 C865.839477,113.544764 866.344924,113.671436 866.534466,113.671436 C866.724009,113.671436 866.724009,112.784731 866.724009,112.594723 Z" id="headshots"></path>
        </g>
    </g>
</svg>
